Coordinates
version=1
nRows=8
nColumns=63
inDegrees=yes

Units are S.I. units (second, meters, Newtons, ...)
If the header above contains a line with 'inDegrees', this indicates whether rotational values are in degrees (yes) or radians (no).

endheader
time	pelvis_tilt	pelvis_list	pelvis_rotation	pelvis_tx	pelvis_ty	pelvis_tz	hip_flexion_r	hip_adduction_r	hip_rotation_r	knee_angle_r	knee_angle_r_beta	ankle_angle_r	subtalar_angle_r	mtp_angle_r	hip_flexion_l	hip_adduction_l	hip_rotation_l	knee_angle_l	knee_angle_l_beta	ankle_angle_l	subtalar_angle_l	mtp_angle_l	L5_S1_Flex_Ext	L5_S1_Lat_Bending	L5_S1_axial_rotation	L4_L5_Flex_Ext	L4_L5_Lat_Bending	L4_L5_axial_rotation	L3_L4_Flex_Ext	L3_L4_Lat_Bending	L3_L4_axial_rotation	L2_L3_Flex_Ext	L2_L3_Lat_Bending	L2_L3_axial_rotation	L1_L2_Flex_Ext	L1_L2_Lat_Bending	L1_L2_axial_rotation	L1_T12_Flex_Ext	L1_T12_Lat_Bending	L1_T12_axial_rotation	Abs_r3	Abs_r2	Abs_r1	Abs_t1	Abs_t2	neck_flexion	neck_bending	neck_rotation	arm_flex_r	arm_add_r	arm_rot_r	elbow_flex_r	pro_sup_r	wrist_flex_r	wrist_dev_r	arm_flex_l	arm_add_l	arm_rot_l	elbow_flex_l	pro_sup_l	wrist_flex_l	wrist_dev_l
1.446809	-5.715770	-4.656288	92.750160	0.269460	0.773802	0.811759	4.638264	-2.054534	-11.179518	15.886985	0.277280	18.527750	-6.536388	0.000000	-0.613312	1.605395	-3.883850	4.548825	0.079392	25.823821	10.974551	0.000000	-0.019959	-0.027130	0.363793	-0.037066	-0.036083	0.386530	-0.032790	-0.065964	0.386530	-0.022811	-0.065964	0.318319	-0.018534	-0.055324	0.295582	-0.011405	-0.042025	0.272845	-0.142564	-0.306902	2.023306	0.000000	0.000000	2.962424	-2.290205	-1.414388	-19.301958	-40.696280	25.150550	51.976703	87.568164	13.574190	-2.718318	-22.011768	-45.325737	19.248901	54.091466	84.267913	15.052491	-1.460770
1.468085	-5.578959	-4.779137	93.644057	0.270336	0.773536	0.812371	4.367814	-1.875641	-13.080736	15.212361	0.265506	18.638093	-5.452027	0.000000	-0.274911	1.347823	-3.281907	4.688117	0.081823	25.459088	11.145451	0.000000	-0.008717	-0.001925	0.128843	-0.016189	-0.002560	0.136896	-0.014322	-0.004680	0.136896	-0.009963	-0.004680	0.112738	-0.008095	-0.003925	0.104685	-0.004981	-0.002981	0.096633	-0.062268	-0.021773	0.716588	0.000000	0.000000	2.644492	-2.115269	-0.383486	-17.957209	-41.434018	27.726332	52.066576	87.741590	11.258998	-4.238604	-22.255799	-44.942434	18.598433	53.884035	84.923549	14.261246	-3.471878
1.489362	-5.408372	-4.935932	94.505736	0.271559	0.773255	0.813215	4.137139	-1.629447	-14.903249	14.440904	0.252041	18.814096	-4.285891	0.000000	0.209584	1.032466	-2.857903	4.995400	0.087186	25.131851	11.436327	0.000000	0.006351	0.027650	-0.118332	0.011794	0.036774	-0.125728	0.010434	0.067227	-0.125728	0.007258	0.067227	-0.103540	0.005897	0.056383	-0.096145	0.003629	0.042829	-0.088749	0.045362	0.312777	-0.658127	0.000000	0.000000	2.472778	-1.940686	0.934434	-16.312187	-42.285134	30.769361	52.201873	87.947737	8.499492	-5.946934	-22.451532	-44.651448	18.354301	53.585887	85.407937	12.852405	-5.717246
1.510638	-5.218325	-5.102644	95.336609	0.273110	0.772976	0.814288	3.919949	-1.329528	-16.604063	13.587359	0.237144	19.024537	-3.112495	0.000000	0.805593	0.680327	-2.575523	5.453251	0.095177	24.867497	11.807943	0.000000	0.022599	0.058673	-0.373117	0.041969	0.078035	-0.396437	0.037128	0.142657	-0.396437	0.025829	0.142657	-0.326478	0.020986	0.119645	-0.303158	0.012913	0.090884	-0.279838	0.161425	0.663717	-2.075167	0.000000	0.000000	2.429178	-1.711996	2.460494	-14.392428	-43.237913	34.277274	52.370423	88.171686	5.405801	-7.761429	-22.504346	-44.479813	18.730466	53.197634	85.774232	10.571463	-8.002957
1.531915	-5.023247	-5.272832	96.110285	0.274963	0.772706	0.815542	3.698420	-0.993025	-18.150746	12.645076	0.220698	19.214965	-1.940243	0.000000	1.478377	0.312205	-2.470373	6.016021	0.104999	24.673792	12.298238	0.000000	0.040742	0.089676	-0.624823	0.075662	0.119269	-0.663874	0.066935	0.218037	-0.663874	0.046564	0.218037	-0.546720	0.037833	0.182866	-0.507669	0.023280	0.138907	-0.468617	0.291016	1.014428	-3.475077	0.000000	0.000000	2.494961	-1.416250	4.151743	-12.234404	-44.246374	38.234113	52.583907	88.408942	2.048923	-9.576837	-22.347185	-44.441912	19.832553	52.695667	86.042997	7.403590	-10.381677
1.553191	-4.851942	-5.443671	96.813584	0.277101	0.772421	0.817005	3.480446	-0.652183	-19.494386	11.643926	0.203225	19.353430	-0.828975	0.000000	2.214145	-0.032964	-2.455887	6.655865	0.116167	24.553207	12.772115	0.000000	0.059615	0.116340	-0.870292	0.110712	0.154732	-0.924686	0.097942	0.282869	-0.924686	0.068134	0.282869	-0.761506	0.055359	0.237241	-0.707113	0.034064	0.180211	-0.652719	0.425827	1.316061	-4.840306	0.000000	0.000000	2.711735	-1.016214	5.934135	-9.796911	-45.261136	42.681246	52.815418	88.651015	-1.377338	-11.262231	-22.022063	-44.522706	21.528037	52.140718	86.393811	3.298439	-12.740624
1.574468	-4.708035	-5.604430	97.429762	0.279482	0.772145	0.818672	3.258465	-0.310891	-20.593491	10.601165	0.185025	19.395682	0.150681	0.000000	2.973253	-0.349999	-2.583707	7.321231	0.127780	24.488040	13.312892	0.000000	0.077741	0.139026	-1.090711	0.144373	0.184905	-1.158881	0.127721	0.338028	-1.158881	0.088850	0.338028	-0.954372	0.072190	0.283502	-0.886203	0.044421	0.215351	-0.818033	0.555296	1.572690	-6.066209	0.000000	0.000000	3.064943	-0.562035	7.692844	-7.233804	-46.252972	47.450361	53.070507	88.878951	-4.887356	-12.793211	-21.284528	-44.705925	24.230123	51.418541	86.705017	-1.732988	-15.036561
1.595745	-4.603539	-5.757340	97.960243	0.282038	0.771855	0.820518	3.037531	0.008958	-21.542824	9.545134	0.166594	19.349105	1.113980	0.000000	3.733399	-0.623072	-2.766964	7.977157	0.139228	24.441400	13.818347	0.000000	0.094391	0.156538	-1.281861	0.175294	0.208196	-1.361978	0.155075	0.380607	-1.361978	0.107880	0.380607	-1.121629	0.087652	0.319213	-1.041512	0.053935	0.242478	-0.961396	0.674228	1.770791	-7.129329	0.000000	0.000000	3.578244	-0.097658	9.344517	-4.692047	-47.158298	52.151841	53.353166	89.063846	-8.067343	-13.958051	-20.077658	-44.907655	28.132649	50.438861	87.175744	-7.860364	-17.268803
